<?xml version="1.0" encoding="UTF-8" standalone="no"?>
<!-- Generator: Adobe Illustrator 23.0.6, SVG Export Plug-In . SVG Version: 6.00 Build 0)  -->

<svg
   xmlns:dc="http://purl.org/dc/elements/1.1/"
   xmlns:cc="http://creativecommons.org/ns#"
   xmlns:rdf="http://www.w3.org/1999/02/22-rdf-syntax-ns#"
   xmlns:svg="http://www.w3.org/2000/svg"
   xmlns="http://www.w3.org/2000/svg"
   xmlns:sodipodi="http://sodipodi.sourceforge.net/DTD/sodipodi-0.dtd"
   xmlns:inkscape="http://www.inkscape.org/namespaces/inkscape"
   version="1.1"
   x="0px"
   y="0px"
   viewBox="0 0 98.140001 92.1"
   xml:space="preserve"
   id="svg3827"
   sodipodi:docname="anapaya_logo.svg"
   inkscape:version="0.92.3 (2405546, 2018-03-11)"
   width="98.139999"
   height="92.099998"><metadata
   id="metadata3833"><rdf:RDF><cc:Work
       rdf:about=""><dc:format>image/svg+xml</dc:format><dc:type
         rdf:resource="http://purl.org/dc/dcmitype/StillImage" /><dc:title></dc:title></cc:Work></rdf:RDF></metadata><defs
   id="defs3831" /><sodipodi:namedview
   pagecolor="#ffffff"
   bordercolor="#666666"
   borderopacity="1"
   objecttolerance="10"
   gridtolerance="10"
   guidetolerance="10"
   inkscape:pageopacity="0"
   inkscape:pageshadow="2"
   inkscape:window-width="2182"
   inkscape:window-height="1096"
   id="namedview3829"
   showgrid="false"
   inkscape:pagecheckerboard="true"
   inkscape:zoom="3.5455625"
   inkscape:cx="96.612054"
   inkscape:cy="-47.173985"
   inkscape:window-x="2891"
   inkscape:window-y="141"
   inkscape:window-maximized="0"
   inkscape:current-layer="svg3827"
   inkscape:measure-start="-5.78359,20.3423"
   inkscape:measure-end="102.509,19.9434"
   showguides="true"
   inkscape:guide-bbox="true"><sodipodi:guide
     position="5.6838776,12.26521"
     orientation="1,0"
     id="guide3854"
     inkscape:locked="false" /><sodipodi:guide
     position="0,24.979146"
     orientation="1,0"
     id="guide3856"
     inkscape:locked="false" /><sodipodi:guide
     position="92.439493,29.173791"
     orientation="1,0"
     id="guide3858"
     inkscape:locked="false" /></sodipodi:namedview>
<style
   type="text/css"
   id="style3793">
	.st0{fill:#0096D6;}
	.st1{fill:url(#SVGID_1_);}
</style>
<g
   id="Layer_1"
   transform="translate(0,4.5776367e-6)">
</g>
<g
   id="Logo"
   transform="translate(0,4.5776367e-6)">
</g>
<g
   id="Isolation_Mode"
   transform="translate(0,4.5776367e-6)">
	<g
   id="g3824">
		<g
   id="g3813">
			<g
   id="g3811">
				
				
				
				
				
				
				
			</g>
		</g>
		<linearGradient
   id="SVGID_1_"
   gradientUnits="userSpaceOnUse"
   x1="76.6381"
   y1="37.3064"
   x2="13.823"
   y2="76.413101">
			<stop
   offset="0.4417"
   style="stop-color:#005A9B"
   id="stop3815" />
			<stop
   offset="0.9697"
   style="stop-color:#50A9DE"
   id="stop3817" />
			<stop
   offset="0.9989"
   style="stop-color:#58AEE2"
   id="stop3819" />
		</linearGradient>
		<path
   class="st1"
   d="m 14.3,84.7 c 2.5,1.4 5.3,2.1 8.1,2.1 6.1,0 11.7,-3.3 14.6,-8.6 l 12.1,-21.6 12,21.6 c 2.9,5.3 8.6,8.6 14.6,8.6 2.8,0 5.6,-0.7 8.1,-2.1 3.9,-2.2 6.7,-5.7 8,-10 C 93,70.4 92.5,65.9 90.3,62 L 67.1,20.2 C 67,20 66.5,19 65.8,17.8 l -0.1,-0.1 c 0,0 0,-0.1 -0.1,-0.1 C 63.5,14 60.3,9.4 57.2,7.7 53.3,5.5 48.8,5 44.5,6.2 c -4.3,1.2 -7.9,4 -10,7.9 L 7.8,61.9 c -0.2,0.3 -0.3,0.6 -0.4,0.9 -3.9,8 -0.9,17.6 6.9,21.9 z M 52.8,14 c -1.5,0.8 -2.8,2.1 -3.6,3.6 L 20.5,69 c -0.7,1.2 -1.8,2.1 -3.1,2.4 -1.3,0.4 -2.7,0.2 -3.9,-0.4 -1.2,-0.7 -2.1,-1.8 -2.4,-3.1 -0.4,-1.3 -0.2,-2.7 0.4,-3.9 l 26.7,-47.8 0.1,-0.3 c 1.6,-2.8 4.2,-4.8 7.3,-5.6 3.2,-0.9 6.5,-0.5 9.4,1.1 0.5,0.3 1.1,0.8 1.8,1.4 -1.4,0.1 -2.7,0.5 -4,1.2 z M 16,76 c 3.4,0 6.6,-1.9 8.3,-4.9 L 53,19.8 c 0,0 0.8,-1.3 2,-1.9 2.4,-1.4 5.5,-0.5 6.9,1.9 l 24.7,44.4 c 1.6,2.9 2,6.2 1.1,9.4 -0.9,3.2 -3,5.8 -5.9,7.4 -4.4,2.4 -9.8,2 -13.7,-1.1 1.4,-0.1 2.9,-0.5 4.1,-1.2 2.2,-1.2 3.8,-3.2 4.5,-5.7 0.7,-2.4 0.4,-5 -0.8,-7.2 L 65.7,47.6 c -1.2,-2.2 -3.2,-3.8 -5.7,-4.5 -2.4,-0.7 -5,-0.4 -7.2,0.8 -1.6,0.9 -2.9,2.2 -3.7,3.8 L 33.2,76.1 c -3.3,6 -10.9,8.1 -16.8,4.8 -2.6,-1.5 -4.6,-3.7 -5.6,-6.5 0.2,0.1 0.4,0.3 0.7,0.4 1.4,0.8 2.9,1.2 4.5,1.2 z M 52.9,49.8 c 0.5,-0.9 1.2,-1.6 2,-2 1.2,-0.7 2.6,-0.8 3.9,-0.5 1.3,0.4 2.4,1.2 3.1,2.4 L 72,67.9 c 0.7,1.2 0.8,2.6 0.4,3.9 -0.4,1.3 -1.2,2.4 -2.4,3.1 -1.2,0.7 -2.6,0.8 -3.9,0.5 C 64.8,75 63.7,74.2 63,73 L 62.8,72.7 51.6,52.2 Z"
   id="path3822"
   inkscape:connector-curvature="0"
   style="fill:url(#SVGID_1_)" />
	</g>
</g>
</svg>